# AST/ASF file generated using VICON BodyLanguage
# -----------------------------------------------
:version 1.10
:name VICON
:units
  mass 1.0
  length 0.45
  angle deg
:documentation
   .ast/.asf automatically generated from VICON data using
   VICON BodyBuilder and BodyLanguage model FoxedUp or BRILLIANT.MOD
:root
   order TX TY TZ RX RY RZ
   axis XYZ
   position 0 0 0  
   orientation 0 0 0 
:bonedata
  begin
     id 1 
     name lhipjoint
     direction 0.578396 -0.714046 0.394458 
     length 2.21935 
     axis 0 0 0  XYZ
  end
  begin
     id 2 
     name lfemur
     direction 0.34202 -0.939693 0  
     length 6.39105  
     axis 0 0 20  XYZ
    dof rx ry rz
    limits (-160.0 20.0)
           (-70.0 70.0)
           (-60.0 70.0)
  end
  begin
     id 3 
     name ltibia
     direction 0.34202 -0.939693 0   
     length 6.99037   
     axis 0 0 20   XYZ
    dof rx
    limits (-10.0 170.0)
  end
  begin
     id 4 
     name lfoot
     direction 0.0582372 -0.160005 0.985397   
     length 2.06111   
     axis -90 7.62852e-016 20   XYZ
    dof rx rz
    limits (-45.0 90.0)
           (-70.0 20.0)
  end
  begin
     id 5 
     name ltoes
     direction 1.53556e-011 -4.21875e-011 1   
     length 1.04074   
     axis -90 7.62852e-016 20   XYZ
    dof rx
    limits (-90.0 20.0)
  end
  begin
     id 6 
     name rhipjoint
     direction -0.558179 -0.726269 0.40121   
     length 2.182  
     axis 0 0 0  XYZ 
  end
  begin
     id 7 
     name rfemur
     direction -0.34202 -0.939693 0   
     length 6.51172   
     axis 0 0 -20   XYZ
    dof rx ry rz
    limits (-160.0 20.0)
           (-70.0 70.0)
           (-70.0 60.0)
  end
  begin
     id 8 
     name rtibia
     direction -0.34202 -0.939693 0   
     length 7.02607   
     axis 0 0 -20   XYZ
    dof rx
    limits (-10.0 170.0)
 end
 begin
     id 9 
     name rfoot
     direction -0.0788856 -0.216737 0.973038   
     length 1.96734  
     axis -90 -7.62852e-016 -20   XYZ
    dof rx rz
    limits (-45.0 90.0)
           (-20.0 70.0)
  end
  begin
     id 10 
     name rtoes
     direction -1.53567e-011 -4.21783e-011 1   
     length 0.990825   
     axis -90 -7.62852e-016 -20   XYZ
    dof rx
    limits (-90.0 20.0)
  end
  begin
     id 11 
     name lowerback
     direction 0.00668177 0.999323 -0.0361741   
     length 1.7655   
     axis 0 0 0   XYZ
    dof rx ry rz
    limits (-20.0 45.0)
           (-30.0 30.0)
           (-30.0 30.0)
  end
  begin
     id 12 
     name upperback
     direction -0.00222086 0.99851 0.0545167   
     length 1.74912   
     axis 0 0 0   XYZ
    dof rx ry rz
    limits (-20.0 45.0)
           (-30.0 30.0)
           (-30.0 30.0)
  end
  begin
     id 13 
     name thorax
     direction -0.00733971 0.997496 0.0703443   
     length 1.75715   
     axis 0 0 0   XYZ
    dof rx ry rz
    limits (-20.0 45.0)
           (-30.0 30.0)
           (-30.0 30.0)
  end
  begin
     id 14 
     name lowerneck
     direction 0.0279797 0.994795 0.0979765   
     length 1.46939   
     axis 0 0 0   XYZ
    dof rx ry rz
    limits (-20.0 45.0)
           (-30.0 30.0)
           (-30.0 30.0)
  end
  begin
     id 15 
     name upperneck
     direction 0.00339187 0.976776 -0.214238   
     length 1.48018   
     axis 0 0 0   XYZ
    dof rx ry rz
    limits (-20.0 45.0)
           (-30.0 30.0)
           (-30.0 30.0)
  end
  begin
     id 16
     name head
     direction -0.00263506 0.996603 -0.0823096  
     length 1.4976  
     axis 0 0 0   XYZ
    dof rx ry rz
    limits (-20.0 45.0)
           (-30.0 30.0)
           (-30.0 30.0)
  end
  begin
     id 17 
     name lclavicle
     direction 0.894044 0.44508 -0.0508781  
     length 3.03024  
     axis 0 0 0   XYZ
    dof ry rz
    limits (-20.0 10.0)
           (0.0 20.0)
  end
  begin
     id 18 
     name lhumerus
     direction 1 -4.48961e-011 -2.39475e-018   
     length 4.4661   
     axis 180 -30 -90   XYZ
    dof rx ry rz
    limits (-60.0 90.0)
           (-90.0 90.0)
           (-90.0 90.0)
  end
  begin
     id 19
     name lradius
     direction 1 -4.48961e-011 9.29328e-028   
     length 3.41414   
     axis 180 -30 -90   XYZ
    dof rx
    limits (-10.0 170.0)
  end
  begin
     id 20
     name lwrist
     direction 1 -4.48985e-011 1.53461e-026   
     length 1.70707   
     axis -1.09697e-014 90 90   XYZ
    dof ry
    limits (-180.0 0.0)
 end
  begin
     id 21 
     name lhand
     direction 1 -4.48966e-011 3.06923e-026   
     length 0.328298   
     axis -1.95843e-014 90 90   XYZ
    dof rx rz
    limits (-90.0 90.0)
           (-45.0 45.0)
  end
  begin
     id 22 
     name lfingers
     direction 1 -4.48893e-011 6.13845e-026   
     length 0.264682   
     axis -3.91686e-014 90 90   XYZ
    dof rx
    limits (0.0 90.0)
  end
  begin
     id 23
     name lthumb
     direction 0.707107 -6.34876e-011 0.707107   
     length 0.380032   
     axis -90 45 2.85299e-015   XYZ
    dof rx rz
    limits (-45.0 45.0)
           (-45.0 45.0)
  end
  begin
     id 24 
     name rclavicle
     direction -0.936955 0.347862 -0.0332887   
     length 3.26927  
     axis 0 0 0   XYZ 
    dof ry rz
    limits (-10.0 20.0)
           (-20.0 0.0)
  end
  begin
     id 25 
     name rhumerus
     direction -1 -4.4896e-011 1.78637e-018  
     length 4.40431   
     axis 180 30 90   XYZ
    dof rx ry rz
    limits (-90.0 60.0)
           (-90.0 90.0)
           (-90.0 90.0)
  end
  begin
     id 26 
     name rradius
     direction -1 -4.48955e-011 9.34036e-027   
     length 3.04688   
     axis 180 30 90   XYZ
    dof rx
    limits (-10.0 170.0)
  end
  begin
     id 27 
     name rwrist
     direction -1 -4.49011e-011 1.53461e-026   
     length 1.52344   
     axis -1.09697e-014 -90 -90   XYZ
    dof ry
    limits (-180.0 0.0)
  end
  begin
     id 28
     name rhand
     direction -1 -4.48834e-011 3.06923e-026   
     length 0.500489   
     axis -1.95843e-014 -90 -90   XYZ
    dof rx rz
    limits (-90.0 90.0)
           (-45.0 45.0)
  end
  begin
     id 29
     name rfingers
     direction -1 -4.48967e-011 6.13845e-026   
     length 0.403507   
     axis -3.91686e-014 -90 -90   XYZ
    dof rx
    limits (0.0 90.0)
  end
  begin
     id 30
     name rthumb
     direction -0.707107 -6.34826e-011 0.707107   
     length 0.579358   
     axis -90 -45 -2.85299e-015   XYZ
    dof rx rz
    limits (-45.0 45.0)
           (-45.0 45.0)
  end
:hierarchy
  begin
    root lhipjoint rhipjoint lowerback
    lhipjoint lfemur
    lfemur ltibia
    ltibia lfoot
    lfoot ltoes
    rhipjoint rfemur
    rfemur rtibia
    rtibia rfoot
    rfoot rtoes
    lowerback upperback
    upperback thorax
    thorax lowerneck lclavicle rclavicle
    lowerneck upperneck
    upperneck head
    lclavicle lhumerus
    lhumerus lradius
    lradius lwrist
    lwrist lhand lthumb
    lhand lfingers
    rclavicle rhumerus
    rhumerus rradius
    rradius rwrist
    rwrist rhand rthumb
    rhand rfingers
  end

#!OML:ASF H:\IndianDance\Patient Classification 1\Patient 1\Session 1\dancer.ASF
:FULLY-SPECIFIED
:DEGREES
1648
root 4.38958 15.4934 0.138961 548.593 -11.9667 -180.192
lowerback 4.79787 5.70779 0.0047262
upperback -7.48571 7.36805 -0.157267
thorax -10.644 3.41662 -1.16634
lowerneck -11.7563 15.0917 13.4809
upperneck 17.4953 17.7485 0.506241
head 8.54773 9.27648 0.191572
rclavicle 6.43565e-015 6.75868e-015
rhumerus -9.85476 53.2264 -22.2153
rradius 122.919
rwrist -39.788
rhand 16.3846 3.79482
rfingers 7.12502
rthumb 41.1534 -21.0726
lclavicle 6.43565e-015 6.75868e-015
lhumerus 7.43559 -18.2058 17.0811
lradius 27.9544
lwrist 4.321
lhand 1.87031 11.9862
lfingers 7.12502
lthumb 27.3806 -319.983
rfemur -30.2316 -23.7218 21.3729
rtibia 58.3817
rfoot -10.875 7.44683
rtoes -7.01148
lfemur -30.651 17.0299 -16.182
ltibia 49.3833
lfoot -5.82939 -2.71162
ltoes -22.6415
1649
root 4.26275 15.4825 0.15385 548.701 -12.4242 -180.451
lowerback 4.81632 5.53385 -0.135057
upperback -7.4275 7.11236 -0.309221
thorax -10.588 3.30139 -1.21471
lowerneck -11.9374 14.9557 13.2931
upperneck 17.6985 17.5528 0.571851
head 8.61259 9.17836 0.228506
rclavicle 1.53064e-014 -3.77691e-015
rhumerus -9.61622 53.3985 -22.659
rradius 122.723
rwrist -39.4502
rhand 15.9294 3.33548
rfingers 7.12502
rthumb 40.7257 -21.6675
lclavicle 1.53064e-014 -3.77691e-015
lhumerus 7.80364 -17.1314 16.8351
lradius 27.0647
lwrist 3.56655
lhand 1.74187 12.0121
lfingers 7.12502
lthumb 27.2577 -319.938
rfemur -30.5783 -24.1321 22.4595
rtibia 58.4627
rfoot -10.614 7.66429
rtoes -3.928
lfemur -31.3808 17.7576 -16.6777
ltibia 50.4246
lfoot -5.44328 -5.30386
ltoes -23.1969
1650
root 4.13649 15.4728 0.167847 548.807 -12.8676 -180.694
lowerback 4.80492 5.37761 -0.211363
upperback -7.34929 6.88742 -0.46266
thorax -10.4836 3.19725 -1.29868
lowerneck -12.1362 14.8038 13.0822
upperneck 17.9099 17.3467 0.602608
head 8.68417 9.0706 0.257427
rclavicle -2.65378e-014 -6.95746e-015
rhumerus -9.35722 53.4715 -23.0361
rradius 122.564
rwrist -39.0864
rhand 15.4307 2.86964
rfingers 7.12502
rthumb 40.2569 -22.2784
lclavicle -2.65378e-014 -6.95746e-015
lhumerus 8.1721 -16.1867 16.5772
lradius 26.344
lwrist 2.99226
lhand 1.60954 12.0152
lfingers 7.12502
lthumb 27.1311 -319.915
rfemur -30.7011 -24.0972 23.2927
rtibia 58.2175
rfoot -10.7813 6.81132
rtoes -1.24144
lfemur -32.1368 18.4923 -17.0754
ltibia 51.5102
lfoot -4.71888 -8.17384
ltoes -23.393
1651
root 4.01098 15.4643 0.181384 548.904 -13.2797 -180.925
lowerback 4.77518 5.24429 -0.237449
upperback -7.25152 6.69935 -0.618259
thorax -10.3404 3.10813 -1.41426
lowerneck -12.3451 14.6389 12.8568
upperneck 18.1317 17.1322 0.603473
head 8.7625 8.95499 0.278609
rclavicle 1.26228e-014 5.56597e-015
rhumerus -9.07641 53.4533 -23.3374
rradius 122.442
rwrist -38.7383
rhand 14.905 2.43023
rfingers 7.12502
rthumb 39.7622 -22.8671
lclavicle 1.26228e-014 5.56597e-015
lhumerus 8.54276 -15.3762 16.3063
lradius 25.7885
lwrist 2.60084
lhand 1.48362 11.9838
lfingers 7.12502
lthumb 27.0106 -319.927
rfemur -30.5944 -23.5891 23.8074
rtibia 57.7226
rfoot -11.3235 5.05011
rtoes 0.514819
lfemur -32.8987 19.1762 -17.3611
ltibia 52.6093
lfoot -3.56233 -11.273
ltoes -22.7726
1652
root 3.88624 15.457 0.195017 548.981 -13.6502 -181.149
lowerback 4.74981 5.13764 -0.222113
upperback -7.13794 6.55248 -0.776519
thorax -10.1777 3.03653 -1.56039
lowerneck -12.5514 14.4619 12.6192
upperneck 18.3634 16.9085 0.58877
head 8.84412 8.83257 0.295112
rclavicle 7.04319e-014 9.93923e-015
rhumerus -8.78871 53.3543 -23.5703
rradius 122.358
rwrist -38.4374
rhand 14.3654 2.05663
rfingers 7.12502
rthumb 39.254 -23.3902
lclavicle 7.04319e-014 9.93923e-015
lhumerus 8.92214 -14.6789 16.0339
lradius 25.3828
lwrist 2.36789
lhand 1.39158 11.9016
lfingers 7.12502
lthumb 26.9226 -319.996
rfemur -30.2697 -22.6135 23.9713
rtibia 57.0672
rfoot -12.0615 2.66248
rtoes 1.01069
lfemur -33.6426 19.764 -17.5214
ltibia 53.6911
lfoot -1.84794 -14.4772
ltoes -20.8195
1653
root 3.76182 15.4501 0.209273 549.025 -13.9721 -181.366
lowerback 4.75799 5.05839 -0.170862
upperback -7.01201 6.44744 -0.936323
thorax -10.0177 2.98298 -1.736
lowerneck -12.7568 14.2745 12.3841
upperneck 18.6165 16.674 0.559933
head 8.93455 8.70339 0.305946
rclavicle -2.05618e-014 3.57812e-015
rhumerus -8.49556 53.1905 -23.738
rradius 122.305
rwrist -38.1873
rhand 13.8019 1.77882
rfingers 7.12502
rthumb 38.7227 -23.8201
lclavicle -2.05618e-014 3.57812e-015
lhumerus 9.30933 -14.063 15.7771
lradius 25.1059
lwrist 2.26278
lhand 1.34007 11.7689
lfingers 7.12502
lthumb 26.8733 -320.121
rfemur -29.752 -21.2315 23.7825
rtibia 56.3356
rfoot -12.8005 0.0209094
rtoes 0.272613
lfemur -34.3353 20.2224 -17.5489
ltibia 54.7258
lfoot 0.439282 -17.4956
ltoes -17.3598
1654
root 3.6368 15.443 0.224478 549.019 -14.2428 -181.581
lowerback 4.82578 5.00585 -0.0891898
upperback -6.87696 6.38305 -1.09424
thorax -9.8804 2.9472 -1.93691
lowerneck -12.9537 14.0768 12.1533
upperneck 18.9026 16.4254 0.532601
head 9.03528 8.56747 0.31523
rclavicle 2.62023e-014 2.78299e-015
rhumerus -8.19542 52.9883 -23.8348
rradius 122.283
rwrist -37.9595
rhand 13.1793 1.61269
rfingers 7.12502
rthumb 38.1352 -24.1496
lclavicle 2.62023e-014 2.78299e-015
lhumerus 9.69781 -13.4966 15.5613
lradius 24.9335
lwrist 2.24261
lhand 1.31872 11.5869
lfingers 7.12502
lthumb 26.8529 -320.3
rfemur -29.0819 -19.5579 23.2737
rtibia 55.6015
rfoot -13.4134 -2.53288
rtoes -1.59834
lfemur -34.9324 20.5215 -17.4433
ltibia 55.6825
lfoot 2.96934 -19.9534
ltoes -13.195
1655
root 3.50995 15.4356 0.240987 548.948 -14.4637 -181.784
lowerback 4.98079 4.97704 0.0311533
upperback -6.7386 6.35664 -1.24278
thorax -9.78813 2.92714 -2.16242
lowerneck -13.1342 13.8713 11.9332
upperneck 19.2259 16.1642 0.511296
head 9.14679 8.42627 0.323343
rclavicle -7.73397e-015 -5.1684e-015
rhumerus -7.88625 52.7799 -23.8606
rradius 122.297
rwrist -37.6888
rhand 12.4503 1.55048
rfingers 7.12502
rthumb 37.4465 -24.3972
lclavicle -7.73397e-015 -5.1684e-015
lhumerus 10.076 -12.9513 15.4133
lradius 24.8376
lwrist 2.24031
lhand 1.31686 11.3574
lfingers 7.12502
lthumb 26.8511 -320.529
rfemur -28.3082 -17.7551 22.5193
rtibia 54.9172
rfoot -13.863 -4.69676
rtoes -4.18725
lfemur -35.3952 20.6481 -17.1962
ltibia 56.5305
lfoot 5.18754 -21.6073
ltoes -9.33207
1656
root 3.37978 15.4275 0.258758 548.801 -14.6367 -181.975
lowerback 5.23774 4.96734 0.189041
upperback -6.59921 6.36271 -1.37481
thorax -9.75271 2.92017 -2.4055
lowerneck -13.2996 13.6623 11.7205
upperneck 19.5997 15.8932 0.508201
head 9.2729 8.28207 0.335646
rclavicle -8.01786e-014 -4.37326e-015
rhumerus -7.55676 52.5977 -23.8111
rradius 122.342
rwrist -37.2941
rhand 11.5774 1.58858
rfingers 7.12502
rthumb 36.6208 -24.573
lclavicle -8.01786e-014 -4.37326e-015
lhumerus 10.4281 -12.4113 15.3549
lradius 24.7902
lwrist 2.18962
lhand 1.30763 11.0934
lfingers 7.12502
lthumb 26.8423 -320.792
rfemur -27.4816 -16.0158 21.5959
rtibia 54.3201
rfoot -14.1513 -6.18122
rtoes -6.71538
lfemur -35.6845 20.6136 -16.8228
ltibia 57.2328
lfoot 6.47672 -22.3441
ltoes -6.71081
1657
root 3.24499 15.4187 0.27777 548.576 -14.7654 -182.134
lowerback 5.59744 4.9704 0.394386
upperback -6.4647 6.39506 -1.47697
thorax -9.78119 2.92258 -2.65754
lowerneck -13.4511 13.4551 11.5008
upperneck 20.0263 15.6187 0.539125
head 9.41259 8.13832 0.360213
rclavicle 1.1932e-013 2.24627e-014
rhumerus -7.18616 52.4755 -23.6837
rradius 122.409
rwrist -36.6966
rhand 10.5569 1.7087
rfingers 7.12502
rthumb 35.6543 -24.692
lclavicle 1.1932e-013 2.24627e-014
lhumerus 10.7278 -11.8843 15.3969
lradius 24.7691
lwrist 2.04291
lhand 1.27251 10.7965
lfingers 7.12502
lthumb 26.8086 -321.084
rfemur -26.6562 -14.5133 20.6055
rtibia 53.8285
rfoot -14.3133 -7.14773
rtoes -8.98009
lfemur -35.7798 20.4349 -16.3291
ltibia 57.7496
lfoot 6.39831 -22.1402
ltoes -6.11927
1658
root 3.10488 15.4104 0.297866 548.282 -14.8506 -182.236
lowerback 6.04312 4.98453 0.659212
upperback -6.33922 6.45463 -1.53537
thorax -9.86801 2.9342 -2.90966
lowerneck -13.5945 13.2536 11.3
upperneck 20.5144 15.3456 0.57631
head 9.57528 7.99608 0.386257
rclavicle 3.29237e-015 -8.34896e-015
rhumerus -6.7737 52.4293 -23.4879
rradius 122.49
rwrist -35.8431
rhand 9.42604 1.8894
rfingers 7.12502
rthumb 34.5818 -24.7633
lclavicle 3.29237e-015 -8.34896e-015
lhumerus 10.9615 -11.393 15.5396
lradius 24.7578
lwrist 1.79239
lhand 1.18784 10.4587
lfingers 7.12502
lthumb 26.7276 -321.409
rfemur -25.8713 -13.3513 19.6386
rtibia 53.4545
rfoot -14.4137 -7.6972
rtoes -10.6653
lfemur -35.6793 20.1302 -15.7175
ltibia 58.0346
lfoot 5.02321 -20.879
ltoes -7.44355
1659
root 2.95906 15.4037 0.318581 547.938 -14.8901 -182.257
lowerback 6.53965 5.00403 0.992825
upperback -6.22755 6.53632 -1.54087
thorax -9.99742 2.95205 -3.15373
lowerneck -13.7184 13.069 11.1072
upperneck 21.0405 15.0901 0.632352
head 9.74965 7.86355 0.419962
rclavicle 1.70768e-014 5.96354e-015
rhumerus -6.30747 52.4695 -23.2408
rradius 122.576
rwrist -34.7267
rhand 8.25186 2.10995
rfingers 7.12502
rthumb 33.4665 -24.7907
lclavicle 1.70768e-014 5.96354e-015
lhumerus 11.1075 -10.9673 15.7587
lradius 24.748
lwrist 1.47798
lhand 1.07524 10.0985
lfingers 7.12502
lthumb 26.6199 -321.753
rfemur -25.1738 -12.5854 18.7732
rtibia 53.2012
rfoot -14.3842 -7.98999
rtoes -11.9088
lfemur -35.4032 19.7179 -14.9936
ltibia 58.0432
lfoot 2.87066 -18.472
ltoes -10.0155
1660
root 2.80798 15.3999 0.339479 547.577 -14.8837 -182.18
lowerback 7.04441 5.02918 1.38979
upperback -6.13465 6.64091 -1.48853
thorax -10.1505 2.97695 -3.37771
lowerneck -13.8348 12.9051 10.9355
upperneck 21.5972 14.8575 0.689995
head 9.93833 7.74226 0.455349
rclavicle -5.81321e-014 -1.70955e-014
rhumerus -5.80606 52.5899 -22.9717
rradius 122.664
rwrist -33.4064
rhand 7.11267 2.35694
rfingers 7.12502
rthumb 32.3829 -24.7715
lclavicle -5.81321e-014 -1.70955e-014
lhumerus 11.1625 -10.6262 16.0361
lradius 24.7359
lwrist 1.15228
lhand 0.965363 9.72634
lfingers 7.12502
lthumb 26.5147 -322.109
rfemur -24.6215 -12.2231 18.0634
rtibia 53.0807
rfoot -14.1688 -8.16318
rtoes -12.8084
lfemur -34.9863 19.2073 -14.1706
ltibia 57.7349
lfoot 0.736972 -14.9609
ltoes -12.6804
1661
root 2.65248 15.4002 0.359901 547.24 -14.825 -182.012
lowerback 7.50244 5.06 1.82652
upperback -6.0608 6.7646 -1.3831
thorax -10.297 3.00903 -3.56719
lowerneck -13.9486 12.7708 10.7896
upperneck 22.1649 14.6585 0.750025
head 10.1362 7.63784 0.493338
rclavicle -1.36913e-013 -1.8487e-014
rhumerus -5.27659 52.7775 -22.7068
rradius 122.756
rwrist -31.9861
rhand 6.08601 2.62247
rfingers 7.12502
rthumb 31.4053 -24.701
lclavicle -1.36913e-013 -1.8487e-014
lhumerus 11.1252 -10.3749 16.3407
lradius 24.7194
lwrist 0.87655
lhand 0.856177 9.34822
lfingers 7.12502
lthumb 26.4102 -322.471
rfemur -24.2741 -12.2275 17.5242
rtibia 53.1151
rfoot -13.7338 -8.2994
rtoes -13.3129
lfemur -34.4686 18.598 -13.276
ltibia 57.0824
lfoot -0.811524 -10.6881
ltoes -14.3214
1662
root 2.49374 15.4046 0.379379 546.97 -14.7116 -181.776
lowerback 7.86776 5.09942 2.26613
upperback -6.0074 6.90335 -1.23899
thorax -10.4135 3.04896 -3.7114
lowerneck -14.0518 12.6659 10.6762
upperneck 22.7076 14.4941 0.808269
head 10.3297 7.55146 0.529939
rclavicle -3.30852e-014 -8.94531e-015
rhumerus -4.74748 53.0227 -22.4778
rradius 122.858
rwrist -30.5771
rhand 5.2042 2.91914
rfingers 7.12502
rthumb 30.5647 -24.5644
lclavicle -3.30852e-014 -8.94531e-015
lhumerus 11.0036 -10.221 16.6375
lradius 24.7029
lwrist 0.698495
lhand 0.773447 8.98447
lfingers 7.12502
lthumb 26.331 -322.823
rfemur -24.196 -12.548 17.1474
rtibia 53.3465
rfoot -13.0406 -8.4792
rtoes -13.5544
lfemur -33.897 17.8905 -12.3525
ltibia 56.0795
lfoot -1.64611 -6.17506
ltoes -14.3729
